<svg width="57" height="43" viewBox="0 0 57 43" fill="none" xmlns="http://www.w3.org/2000/svg">
<path opacity="0.3" fill-rule="evenodd" clip-rule="evenodd" d="M35.2246 42.3588C32.252 36.6118 30.7658 30.3695 30.7658 23.6317C30.7658 16.7949 32.5741 11.147 36.1906 6.68823C39.8072 2.22941 45.4303 0 53.0598 0V9.36352C50.3845 9.36352 48.4276 9.95803 47.189 11.147C45.9505 12.3361 45.3312 14.615 45.3312 17.9839V19.4702H56.181V42.3588H35.2246ZM4.4588 42.3588C1.48627 36.6118 0 30.3695 0 23.6317C0 16.7949 1.80829 11.147 5.42488 6.68823C9.04147 2.22941 14.6645 0 22.294 0V9.36352C19.6187 9.36352 17.6618 9.95803 16.4233 11.147C15.1847 12.3361 14.5654 14.615 14.5654 17.9839V19.4702H25.4152V42.3588H4.4588Z" fill="#AAB4DB"/>
</svg>
